<?xml version="1.0" encoding="UTF-8"?>
<svg id="Calque_1" data-name="Calque 1" xmlns="http://www.w3.org/2000/svg" viewBox="0 0 89.65 89.98">
  <path d="m69.21,58.07c-.68,0-1.24-.56-1.24-1.24V5.55c0-1.69-1.38-3.06-3.06-3.06H24.82c-1.69,0-3.06,1.38-3.06,3.06v51.28c0,.69-.56,1.24-1.24,1.24s-1.24-.56-1.24-1.24V5.55c0-3.06,2.49-5.55,5.55-5.55h40.09c3.06,0,5.54,2.49,5.54,5.55v51.28c0,.69-.56,1.24-1.24,1.24h-.01Z"/>
  <path d="m64.9,89.98H24.82c-3.06,0-5.55-2.49-5.55-5.54v-19.34c0-.68.56-1.24,1.24-1.24s1.24.56,1.24,1.24v19.34c0,1.69,1.38,3.06,3.06,3.06h40.09c1.69,0,3.06-1.38,3.06-3.06v-19.34c0-.68.56-1.24,1.24-1.24s1.24.56,1.24,1.24v19.34c0,3.06-2.49,5.54-5.54,5.54Z"/>
  <path d="m72.86,35.1c9.13,2.97,14.58,7.32,14.58,11.62,0,7.16-14.54,13.7-33.82,15.21-.61.05-1.06.58-1.02,1.2.05.58.53,1.03,1.1,1.03h.09c21.11-1.66,35.86-8.83,35.86-17.43,0-5.48-5.72-10.36-16.11-13.74-.58-.19-1.21.13-1.39.72-.19.58.13,1.21.71,1.4h0Z"/>
  <path d="m44.46,64.49l-1.62,1.63c-.43.43-.43,1.14,0,1.57.22.22.5.33.78.33s.57-.11.78-.33l3.51-3.53c.43-.43.43-1.14,0-1.57l-3.51-3.53c-.43-.44-1.13-.44-1.57,0s-.43,1.14,0,1.57l1.62,1.62c-22.93-.08-42.24-7.16-42.24-15.55,0-4.38,5.61-8.78,15-11.76.58-.19.91-.81.72-1.4-.18-.59-.81-.91-1.39-.73C6.03,36.18,0,41.23,0,46.72c0,9.92,19.5,17.7,44.46,17.77Z"/>
  <path d="m65.14,5.69H24.84c-.45,0-.82.37-.82.82v8.42c0,.45.37.82.82.82h40.29c.45,0,.82-.37.82-.82V6.51c0-.45-.37-.82-.82-.82h0Zm-.82,8.42H25.66v-6.79h38.66v6.79Z"/>
  <path d="m60.64,12.56c.32,0,.62-.07.89-.21l.51.51c.12.12.28.18.44.18s.32-.06.44-.18c.24-.24.24-.64,0-.88l-.51-.51c.14-.27.21-.58.21-.89,0-.53-.21-1.03-.58-1.4h0c-.77-.77-2.03-.77-2.81,0-.38.38-.58.87-.58,1.4s.21,1.03.58,1.4c.38.37.87.58,1.4.58,0,0,0,0,.01,0Zm-.52-2.51c.14-.15.33-.22.53-.22s.38.07.53.22c.14.14.22.33.22.52s-.08.39-.22.52c-.14.14-.33.22-.53.22s-.39-.08-.53-.22-.22-.33-.22-.52.08-.39.22-.52Z"/>
  <path d="m47.49,30.12c.02.06.05.11.08.16.03.05.07.1.12.14.04.04.09.08.14.11s.1.06.16.08.12.04.17.05c.06.01.12.02.18.02s.12,0,.18-.02c.06-.01.12-.03.17-.05s.11-.05.16-.08.1-.07.14-.11c.17-.17.27-.41.27-.65,0-.06,0-.12-.02-.18,0-.06-.03-.12-.05-.17-.02-.06-.05-.11-.08-.16s-.07-.1-.12-.14c-.04-.04-.09-.08-.14-.11s-.1-.06-.16-.08-.11-.04-.17-.05c-.12-.02-.24-.02-.36,0-.06.01-.12.03-.17.05-.06.02-.11.05-.16.08s-.1.07-.14.11-.08.09-.12.14c-.03.05-.06.1-.08.16s-.04.11-.05.17-.02.12-.02.18,0,.12.02.18.03.12.06.17h-.01Z"/>
  <path d="m25.6,30.69h19.23c.51,0,.92-.41.92-.92s-.41-.92-.92-.92h-19.23c-.51,0-.92.41-.92.92s.41.92.92.92Z"/>
  <path d="m25.37,52.41h25.51c.46,0,.84-.38.84-.84v-16.56c0-.46-.38-.84-.84-.84h-25.51c-.46,0-.84.38-.84.84v16.56c0,.46.38.84.84.84Zm12.96-3.77h4.07c.46,0,.84-.38.84-.84s-.38-.84-.84-.84h-2.81l.59-.79h5.27l3.42,4.55h-12.11l1.57-2.09h0Zm3.11-4.15l1.38-1.84,1.38,1.84h-2.76Zm-6.78,6.23h-7.13l4.8-5.56,3.48,4.03s-1.15,1.53-1.15,1.53Zm15.37-14.89v13.64h0l-6.55-8.73c-.16-.21-.41-.34-.67-.34s-.51.12-.67.34l-5.3,7.07h0l-3.87-4.49c-.16-.19-.39-.29-.64-.29h0c-.24,0-.48.11-.64.29l-5.49,6.35v-13.85h23.83,0Z"/>
  <path d="m35.99,42.75c1.64,0,2.97-1.33,2.97-2.97s-1.33-2.97-2.97-2.97-2.97,1.33-2.97,2.97,1.33,2.97,2.97,2.97Zm0-4.26c.71,0,1.29.58,1.29,1.29s-.58,1.29-1.29,1.29-1.29-.58-1.29-1.29.58-1.29,1.29-1.29Z"/>
  <path d="m65.86,35.85v-1.68h-10.44c-.46,0-.84.37-.84.84v16.56c0,.47.38.84.84.84h10.44v-3.21l-1.15,1.53h-7.13l4.8-5.56,3.48,4.03v-2.57l-2.84-3.29c-.16-.19-.39-.29-.64-.29s-.47.1-.63.29l-5.49,6.35v-13.84s9.6,0,9.6,0Z"/>
  <path d="m65.86,38.51v-1.69c-1.55.09-2.79,1.38-2.79,2.96s1.24,2.87,2.79,2.96v-1.69c-.63-.08-1.11-.62-1.11-1.27s.48-1.19,1.11-1.27Z"/>
  <path d="m64.57,72.82H25.6c-.51,0-.92.41-.92.93v9.53c0,.51.41.93.92.93h38.97c.51,0,.93-.41.93-.93v-9.53c0-.51-.42-.93-.93-.93Zm-.92,9.53H26.53v-7.68h37.12v7.68h0Z"/>
  <path d="m28.98,78.87c.02.06.05.11.08.16s.07.1.12.14c.17.17.41.27.65.27.06,0,.12,0,.18-.02.06-.01.12-.03.17-.05.06-.02.11-.05.16-.08s.1-.07.14-.11.08-.09.12-.14c.03-.05.06-.1.08-.16.02-.06.04-.11.05-.17.01-.06.02-.12.02-.18s0-.12-.02-.18c-.01-.06-.03-.12-.05-.17-.02-.06-.05-.11-.08-.16s-.07-.1-.12-.14c-.04-.04-.09-.08-.14-.11s-.1-.06-.16-.08-.11-.04-.17-.05c-.12-.02-.24-.02-.36,0-.06.01-.12.03-.17.05s-.11.05-.16.08-.1.07-.14.11-.08.09-.12.14c-.03.05-.06.1-.08.16-.02.06-.04.11-.05.17s-.02.12-.02.18,0,.12.02.18c.01.06.03.12.05.17h0Z"/>
  <path d="m33.35,79.44h26.54c.51,0,.93-.41.93-.93s-.41-.93-.93-.93h-26.54c-.51,0-.92.41-.92.93s.41.93.92.93Z"/>
</svg>