<?xml version="1.0" encoding="UTF-8"?>
<svg id="Calque_1" data-name="Calque 1" xmlns="http://www.w3.org/2000/svg" viewBox="0 0 1530 1365.4">
  <g>
    <g>
      <path d="m1440.7,1074.7H89.3c-49.2,0-89.3-40.1-89.3-89.3V89.3C0,40.1,40.1,0,89.3,0h1351.4c49.2,0,89.3,40.1,89.3,89.3v896.1c0,49.2-40.1,89.3-89.3,89.3h0ZM89.3,42c-26.1,0-47.3,21.2-47.3,47.3v896.1c0,26.1,21.2,47.3,47.3,47.3h1351.4c26.1,0,47.3-21.2,47.3-47.3V89.3c0-26.1-21.2-47.3-47.3-47.3,0,0-1351.4,0-1351.4,0Z"/>
      <path d="m1509,846.7H21c-11.6,0-21-9.4-21-21s9.4-21,21-21h1488c11.6,0,21,9.4,21,21s-9.4,21-21,21Z"/>
      <circle cx="765" cy="939.7" r="33"/>
    </g>
    <g>
      <path d="m655.3,1220.8c-11.6,0-21-9.4-21-21v-146.1c0-11.6,9.4-21,21-21s21,9.4,21,21v146.1c0,11.6-9.4,21-21,21Z"/>
      <path d="m874.7,1220.8c-11.6,0-21-9.4-21-21v-146.1c0-11.6,9.4-21,21-21s21,9.4,21,21v146.1c0,11.6-9.4,21-21,21Z"/>
    </g>
    <path d="m1150.3,1365.4H379.7c-11.6,0-21-9.4-21-21,0-86.9,70.7-157.6,157.6-157.6h497.3c86.9,0,157.6,70.7,157.6,157.6.1,11.6-9.4,21-20.9,21Zm-747.6-42h724.7c-9.9-53.7-57.1-94.6-113.7-94.6h-497.4c-56.5,0-103.7,40.8-113.6,94.6h0Z"/>
  </g>
  <g>
    <g>
      <path d="m637.8,575.4c-5.4,0-10.7-2.1-14.8-6.2l-131-131c-3.9-3.9-6.2-9.3-6.2-14.8s2.2-10.9,6.2-14.8l131-131c8.2-8.2,21.5-8.2,29.7,0s8.2,21.5,0,29.7l-116.2,116.1,116.2,116.2c8.2,8.2,8.2,21.5,0,29.7-4.1,4-9.5,6.1-14.9,6.1Z"/>
      <path d="m892.2,575.4c-5.4,0-10.7-2.1-14.8-6.2-8.2-8.2-8.2-21.5,0-29.7l116.2-116.2-116.2-116.2c-8.2-8.2-8.2-21.5,0-29.7s21.5-8.2,29.7,0l131,131c8.2,8.2,8.2,21.5,0,29.7l-131,131c-4.2,4.2-9.5,6.3-14.9,6.3h0Z"/>
    </g>
    <path d="m717.3,622.5c-1.8,0-3.6-.2-5.4-.7-11.2-3-17.9-14.5-14.8-25.7l95.4-356.1c3-11.2,14.5-17.9,25.7-14.8,11.2,3,17.9,14.5,14.8,25.7l-95.4,356.1c-2.5,9.3-11,15.5-20.3,15.5Z"/>
  </g>
</svg>