<?xml version="1.0" encoding="UTF-8"?>
<svg id="Layer_1" data-name="Layer 1" xmlns="http://www.w3.org/2000/svg" viewBox="0 0 425.3 496">
  <path d="m336,192h-128v-64c0-44.11,35.89-80,80-80v-16c-52.94,0-96,43.06-96,96v64H32c-17.65,0-32,14.35-32,32v192c0,17.65,14.35,32,32,32h88v32h-16v16h160v-16h-16v-32h88c17.65,0,32-14.35,32-32v-192c0-17.65-14.35-32-32-32Zm-104,288h-96v-32h96v32Zm120-64c0,8.82-7.18,16-16,16H32c-8.82,0-16-7.18-16-16v-16h336v16Zm0-32H16v-160c0-8.82,7.18-16,16-16h160v16c0,27.94-14.42,52.54-36.18,66.85-8.37-20.42-28.43-34.85-51.82-34.85-30.88,0-56,25.13-56,56s25.12,56,56,56,56-25.13,56-56c0-1.63-.1-3.24-.25-4.84,28.78-16.59,48.25-47.62,48.25-83.16v-16h128c8.82,0,16,7.18,16,16v160Zm-240-64c11.14,0,21.79-2.01,31.75-5.51-1.32,20.88-18.55,37.51-39.75,37.51s-40-17.94-40-40,17.94-40,40-40c17.23,0,31.82,11.01,37.43,26.32-9.12,3.62-19.03,5.68-29.43,5.68h-16v16h16Z"/>
  <rect x="256" y="224" width="16" height="16"/>
  <rect x="288" y="224" width="16" height="16"/>
  <rect x="320" y="224" width="16" height="16"/>
  <path d="m268.69,80h36.61l120-40L305.3,0h-36.61l40,40-40,40Zm36.54-65.97l77.88,25.97-77.88,25.97,25.95-25.97s-25.95-25.97-25.95-25.97Z"/>
  <path d="m240,352h80v-80h-80v80Zm16-64h48v48h-48v-48Z"/>
</svg>