<?xml version="1.0" encoding="utf-8"?>
<!-- Generator: Adobe Illustrator 28.3.0, SVG Export Plug-In . SVG Version: 6.00 Build 0)  -->
<svg version="1.1" id="Layer_1" xmlns="http://www.w3.org/2000/svg" xmlns:xlink="http://www.w3.org/1999/xlink" x="0px" y="0px"
	 viewBox="0 0 800 800" style="enable-background:new 0 0 800 800;" xml:space="preserve">
<style type="text/css">
	.st0{fill:#FFFFFF;}
	.st1{display:none;}
	.st2{display:inline;fill:#00D8FF;}
	.st3{fill:#E23237;}
	.st4{fill:#B52E31;}
</style>
<path class="st0" d="M0.4,399.6v-400h800v800H0.4"/>
<g class="st1">
	<circle class="st2" cx="400" cy="400" r="63.2"/>
	<path class="st2" d="M400,286c81.7,0,159.3,11.5,218.3,31.8c65.5,22.6,105.5,55.9,105.5,81.6c0,27.4-43.2,62.9-113.3,86.1
		C554.7,504,480.1,514.1,400,514.1c-84.1,0-159.6-9.9-214.8-28.7c-34.5-11.8-63-27.1-82.6-43.9c-17.6-15-26.4-30-26.4-42.1
		c0-25.8,38.4-58.7,102.5-81C237.8,297.8,317.3,286,400,286L400,286 M400,255.7c-85.9,0-168.8,12.3-231.2,34.1
		C93.8,316,45.9,356.9,45.9,399.4S97.3,487.3,175.4,514c58.7,20.1,137.4,30.4,224.6,30.4s160.9-10.5,220.1-30.1
		c81.2-26.9,134-70.4,134-114.9s-49.4-83.9-125.9-110.2C565.8,267.7,484.9,255.7,400,255.7L400,255.7 M301.2,343.1
		c40.8-70.8,89.6-132.2,136.6-173.2c52.3-45.5,101.1-63.5,123.4-50.6c23.7,13.7,32.9,68.8,18,141.1
		c-11.9,57.6-40.4,127.3-80.4,196.7c-42,72.9-88.3,133.3-132.2,171.7c-27.5,24-55,41-79.3,49.6c-21.8,7.7-39.2,7.9-49.7,1.9
		c-22.3-12.9-31.6-62.6-19-129.3C230.4,489.5,259.9,414.7,301.2,343.1L301.2,343.1 M275,327.9c-42.9,74.4-73.6,152.4-86,217.3
		c-14.8,78-3.2,139.9,33.6,161.2c38,21.9,101.8-0.6,163.9-54.9c46.7-40.8,94.9-103.8,138.5-179.4c41.5-72,71.3-144.6,83.9-205.7
		c17.2-83.8,6-151.2-32.5-173.4C539.4,71.7,479,93.9,418,147C368.2,190.3,317.4,254.4,275,327.9L275,327.9 M301.3,457.2
		c-40.9-70.7-69.8-143.6-81.8-204.9c-13.3-68-4.5-119.3,17.8-132.2c23.7-13.7,76.1,5.8,131.3,54.9c44,39,90.1,98.6,130.2,167.9
		c42.2,72.8,71.4,143.1,82.7,200.3c7.1,35.8,8.1,68.2,3.4,93.5c-4.2,22.7-12.7,37.9-23.2,44c-22.3,12.9-70-3.9-121.5-48.2
		C392.8,591.7,342.7,528.8,301.3,457.2L301.3,457.2 M275.1,472.4c43,74.4,95.2,139.9,145.4,183c60.2,51.8,119.6,72.7,156.4,51.4
		c38-22,50.3-88.5,34.3-169.5c-12-60.9-42.5-134.1-86.2-209.6c-41.6-71.9-89.7-134-136.3-175.4c-63.9-56.8-128-80.7-166.5-58.4
		c-36.9,21.4-47.8,84.8-32.3,164.2C202.4,322.9,232.6,398.9,275.1,472.4L275.1,472.4"/>
</g>
<g>
	<path class="st3" d="M61.6,159.3L395.9,40.2l343.4,117l-55.6,442.4L395.9,759L112.7,601.7L61.6,159.3z"/>
	<path class="st4" d="M739.3,157.2l-343.4-117V759l287.8-159.1L739.3,157.2L739.3,157.2z"/>
	<path class="st0" d="M396.5,124.1L188.1,587.7l77.8-1.3l41.8-104.6h186.9l45.8,105.9l74.4,1.3L396.5,124.1L396.5,124.1z M397,272.6
		l70.4,147.2H335L397,272.6L397,272.6z"/>
</g>
</svg>
