<?xml version="1.0" encoding="UTF-8"?>
<svg id="Layer_1" data-name="Layer 1" xmlns="http://www.w3.org/2000/svg" viewBox="0 0 800 800">
  <defs>
    <style>
      .cls-1 {
        fill: #2965f1;
      }

      .cls-1, .cls-2, .cls-3, .cls-4 {
        stroke-width: 0px;
      }

      .cls-2 {
        fill: #ebebeb;
      }

      .cls-3 {
        fill: #264de4;
      }

      .cls-4 {
        fill: #fff;
      }
    </style>
  </defs>
  <path class="cls-1" d="M0,400V0h800v800H0"/>
  <g>
    <path class="cls-3" d="M399.61,764.31l-262.37-72.83L78.77,35.69h642.45l-58.53,655.68-263.09,72.94h0Z"/>
    <path class="cls-1" d="M612.59,649.62l50.02-560.3h-262.61v619.24l212.59-58.94h0Z"/>
    <path class="cls-2" d="M212.81,332.53l7.21,80.43h179.98v-80.43h-187.19Z"/>
    <path class="cls-2" d="M198.32,169.74l7.31,80.43h194.37v-80.43h-201.68Z"/>
    <path class="cls-2" d="M400,541.41l-.35.09-89.57-24.19-5.73-64.15h-80.74l11.27,126.28,164.75,45.74.37-.1v-83.68h0Z"/>
    <path class="cls-4" d="M586.68,332.53l14.52-162.79h-201.47v80.43h113.33l-7.32,82.36h-106.01v80.43h99.04l-9.34,104.31-89.7,24.21v83.68l164.88-45.7,1.21-13.59,18.9-211.74,1.96-21.6h0Z"/>
  </g>
</svg>