<?xml version="1.0" encoding="UTF-8"?>
<svg id="Layer_1" data-name="Layer 1" xmlns="http://www.w3.org/2000/svg" xmlns:xlink="http://www.w3.org/1999/xlink" viewBox="0 0 800 800">
  <defs>
    <style>
      .cls-1, .cls-2 {
        fill: #fff;
      }

      .cls-3 {
        fill: #29b6f6;
      }

      .cls-4 {
        fill: #40c4ff;
      }

      .cls-5 {
        fill: #01579b;
      }

      .cls-6 {
        fill: url(#Dégradé_sans_nom);
      }

      .cls-6, .cls-7, .cls-2 {
        isolation: isolate;
        opacity: .2;
      }

      .cls-7 {
        fill: #263238;
      }
    </style>
    <radialGradient id="Dégradé_sans_nom" data-name="Dégradé sans nom" cx="-195.63" cy="2.36" fx="-195.63" fy="2.36" r="1.4" gradientTransform="translate(50478.49 -194.79) scale(255.94)" gradientUnits="userSpaceOnUse">
      <stop offset="0" stop-color="#fff" stop-opacity=".1"/>
      <stop offset="1" stop-color="#fff" stop-opacity="0"/>
    </radialGradient>
  </defs>
  <path class="cls-1" d="m0,400V0h800v800H0"/>
  <g>
    <path class="cls-5" d="m197.08,616.92l-122.46-122.46c-14.52-14.89-23.52-35.94-23.52-56.52,0-9.53,5.37-24.42,9.42-32.94l113.04-235.45,23.52,447.37Z"/>
    <path class="cls-4" d="m616.24,193.08l-122.46-122.46c-10.68-10.74-32.94-23.52-51.78-23.52-16.21,0-32.1,3.26-42.36,9.42l-226.03,113.04,442.63,23.52Z"/>
    <polygon class="cls-4" points="343.06 762.9 639.76 762.9 639.76 635.76 418.42 565.09 215.92 635.76 343.06 762.9"/>
    <path class="cls-3" d="m173.55,550.98c0,37.78,4.74,47.05,23.52,65.94l18.84,18.84h423.84l-207.19-235.45L173.55,169.55v381.43Z"/>
    <path class="cls-5" d="m550.3,169.5H173.55l466.21,466.21h127.14v-291.97l-150.72-150.72c-21.16-21.21-39.94-23.52-65.89-23.52h0Z"/>
    <path class="cls-2" d="m201.81,621.61c-18.84-18.89-23.52-37.52-23.52-70.62V174.24l-4.68-4.68v381.43c-.05,33.1-.05,42.26,28.21,70.62l14.1,14.1h0l-14.1-14.1h-.01Z"/>
    <polygon class="cls-7" points="762.22 339.06 762.22 631.03 635.08 631.03 639.76 635.76 766.9 635.76 766.9 343.74 762.22 339.06"/>
    <path class="cls-2" d="m616.24,193.08c-23.37-23.37-42.47-23.52-70.62-23.52H173.61l4.68,4.68h367.32c14.05,0,49.52-2.37,70.62,18.84h.01Z"/>
    <path class="cls-6" d="m762.22,339.06l-145.98-145.98-122.46-122.46c-10.68-10.74-32.94-23.52-51.78-23.52-16.21,0-32.1,3.26-42.36,9.42l-226.03,113.04-113.04,235.45c-4.05,8.58-9.42,23.47-9.42,32.94,0,20.58,9.05,41.57,23.52,56.52l112.83,112.04c2.68,3.32,5.84,6.68,9.58,10.42l4.68,4.68,14.1,14.1,122.46,122.46,4.68,4.68h296.65v-127.14h127.14v-291.97l-4.58-4.68h0Z"/>
  </g>
</svg>