<?xml version="1.0" encoding="UTF-8"?>
<svg id="Layer_1" data-name="Layer 1" xmlns="http://www.w3.org/2000/svg" viewBox="0 0 800 800">
  <defs>
    <style>
      .cls-1 {
        fill: #fff;
      }

      .cls-2 {
        fill: #0091e2;
      }
    </style>
  </defs>
  <path class="cls-2" d="m0,400V0h800v800H0"/>
  <path class="cls-1" d="m738.85,339.34c-1.93-1.57-19.4-14.7-56.26-14.7-9.76,0-19.52.72-29.15,2.53-7.11-49.03-47.59-72.89-49.39-73.97l-9.88-5.78-6.51,9.4c-8.19,12.65-14.1,26.5-17.59,41.2-6.63,27.95-2.65,54.21,11.57,76.62-17.11,9.52-44.7,11.93-50.24,12.05H75.87c-11.93,0-21.57,9.64-21.57,21.57-.48,39.88,6.26,79.51,19.88,116.98,15.66,41.2,39.03,71.44,69.39,89.99,33.97,20.84,89.27,32.77,152.04,32.77,28.31.12,56.62-2.53,84.45-7.71,38.67-7.11,75.9-20.6,110.11-40,28.19-16.38,53.61-37.11,75.18-61.56,36.02-40.84,57.59-86.38,73.61-126.74h6.39c39.52,0,63.85-15.78,77.22-29.03,8.92-8.43,15.9-18.67,20.36-30.12l2.77-8.31-6.87-5.18Zm-620.81,34.21h61.08c2.89,0,5.3-2.41,5.3-5.3v-54.33c0-2.89-2.41-5.3-5.3-5.42h-61.08c-2.89,0-5.3,2.41-5.3,5.3v54.45c0,3.01,2.41,5.3,5.3,5.3m84.21,0h61.08c2.89,0,5.3-2.41,5.3-5.3v-54.33c0-2.89-2.41-5.3-5.3-5.42h-61.08c-3.01,0-5.42,2.41-5.42,5.42v54.33c0,3.01,2.41,5.3,5.42,5.3m85.3.12h61.08c2.89,0,5.3-2.41,5.3-5.3v-54.33c0-2.89-2.41-5.3-5.3-5.42h-61.08c-2.89,0-5.3,2.41-5.3,5.3v54.45c0,2.89,2.41,5.18,5.3,5.3m84.45,0h61.08c2.89,0,5.3-2.41,5.42-5.3v-54.33c0-3.01-2.41-5.42-5.42-5.42h-61.08c-2.89,0-5.3,2.41-5.3,5.3v54.45c0,2.89,2.29,5.3,5.3,5.3m-169.87-78.31h61.08c2.89,0,5.3-2.41,5.3-5.42v-54.33c0-2.89-2.41-5.3-5.3-5.3h-61.08c-3.01,0-5.3,2.41-5.42,5.3v54.33c.12,3.01,2.53,5.42,5.42,5.42m85.42,0h61.08c2.89,0,5.3-2.41,5.3-5.42v-54.33c0-2.89-2.41-5.3-5.3-5.3h-61.08c-2.89,0-5.3,2.41-5.3,5.3v54.33c0,3.01,2.41,5.42,5.3,5.42m84.45,0h61.08c3.01,0,5.3-2.41,5.42-5.42v-54.33c0-3.01-2.41-5.3-5.42-5.3h-61.08c-2.89,0-5.3,2.41-5.3,5.3v54.33c0,3.01,2.29,5.42,5.3,5.42m0-78.19h61.08c3.01,0,5.42-2.41,5.42-5.42v-54.45c0-2.89-2.41-5.3-5.42-5.3h-61.08c-2.89,0-5.3,2.41-5.3,5.3v54.45c0,3.01,2.29,5.42,5.3,5.42m85.06,156.5h61.08c2.89,0,5.3-2.41,5.3-5.3v-54.33c0-3.01-2.41-5.3-5.3-5.42h-61.08c-2.89,0-5.3,2.41-5.3,5.3v54.45c0,2.89,2.41,5.3,5.3,5.3"/>
</svg>