<?xml version="1.0" encoding="UTF-8"?>
<svg id="Layer_1" data-name="Layer 1" xmlns="http://www.w3.org/2000/svg" viewBox="0 0 800 800">
  <defs>
    <style>
      .cls-1 {
        fill: #fff;
      }

      .cls-2 {
        fill: #de4c36;
      }
    </style>
  </defs>
  <path class="cls-1" d="m0,400V0h800v800H0"/>
  <path class="cls-2" d="m737.77,368.73L431.26,62.24c-17.64-17.65-46.28-17.65-63.93,0l-63.65,63.65,80.74,80.74c18.77-6.33,40.27-2.09,55.24,12.87,15.03,15.05,19.25,36.75,12.75,55.57l77.81,77.81c18.83-6.49,40.54-2.28,55.58,12.77,21.01,21.01,21.01,55.05,0,76.07-21.02,21.02-55.07,21.02-76.09,0-15.81-15.82-19.71-39.04-11.7-58.51l-72.57-72.57v190.97c5.12,2.54,9.95,5.92,14.22,10.18,21.01,21.01,21.01,55.05,0,76.09-21.02,21.01-55.08,21.01-76.07,0-21.01-21.04-21.01-55.08,0-76.09,5.19-5.18,11.19-9.11,17.61-11.73v-192.74c-6.41-2.62-12.41-6.51-17.61-11.73-15.92-15.9-19.75-39.27-11.59-58.81l-79.58-79.6L62.25,367.32c-17.66,17.68-17.66,46.3,0,63.95l306.51,306.5c17.64,17.65,46.28,17.65,63.94,0l305.08-305.07c17.65-17.66,17.65-46.31,0-63.96"/>
</svg>