<?xml version="1.0" encoding="UTF-8"?>
<svg id="Layer_1" data-name="Layer 1" xmlns="http://www.w3.org/2000/svg" viewBox="0 0 800 800">
  <defs>
    <style>
      .cls-1 {
        fill: #e44d26;
      }

      .cls-1, .cls-2, .cls-3, .cls-4 {
        stroke-width: 0px;
      }

      .cls-2 {
        fill: #ebebeb;
      }

      .cls-3 {
        fill: #f16529;
      }

      .cls-4 {
        fill: #fff;
      }
    </style>
  </defs>
  <path class="cls-3" d="M0,400V0h800v800H0"/>
  <g>
    <path class="cls-1" d="M721.23,35.67l-58.57,656.08-263.25,72.98-262.53-72.88L78.37,35.67h642.85Z"/>
    <path class="cls-3" d="M399.8,708.95l212.72-58.98,50.05-560.65h-262.77v619.63h0Z"/>
    <path class="cls-2" d="M285.95,250.28h113.85v-80.48h-201.8l1.93,21.59,19.78,221.78h180.1v-80.48h-106.49l-7.35-82.41h0Z"/>
    <path class="cls-2" d="M304.09,453.41h-80.79l11.28,126.36,164.85,45.76.37-.1v-83.73l-.35.09-89.63-24.2-5.73-64.19h0Z"/>
    <path class="cls-4" d="M399.52,413.17h99.1l-9.34,104.37-89.76,24.23v83.73l164.99-45.73,1.21-13.6,18.91-211.87,1.96-21.61h-187.07v80.48h0Z"/>
    <path class="cls-4" d="M399.52,250.08v.2h194.39l1.61-18.09,3.67-40.8,1.92-21.59h-201.6v80.28h0Z"/>
  </g>
</svg>