<?xml version="1.0" encoding="UTF-8"?>
<svg id="Layer_1" data-name="Layer 1" xmlns="http://www.w3.org/2000/svg" viewBox="0 0 800 800">
  <defs>
    <style>
      .cls-1 {
        fill: #5d87a1;
      }

      .cls-1, .cls-2, .cls-3 {
        stroke-width: 0px;
      }

      .cls-2 {
        fill: #f8981d;
      }

      .cls-3 {
        fill: #fff;
      }
    </style>
  </defs>
  <path class="cls-3" d="M0,400V0h800v800H0"/>
  <g>
    <path class="cls-1" d="M232.18,585.58h-25.23c-.89-42.59-3.35-82.62-7.37-120.14h-.22l-38.41,120.14h-19.21l-38.18-120.14h-.22c-2.83,36.02-4.62,76.06-5.36,120.14h-23c1.48-53.59,5.21-103.84,11.16-150.74h31.27l36.39,110.76h.22l36.62-110.76h29.92c6.55,54.93,10.42,105.18,11.61,150.74M341.6,474.36c-10.27,55.74-23.83,96.25-40.65,121.53-13.1,19.46-27.46,29.2-43.1,29.2-4.17,0-9.31-1.26-15.41-3.75v-13.44c2.98.43,6.47.67,10.49.67,7.3,0,13.17-2.01,17.65-6.04,5.35-4.9,8.03-10.42,8.03-16.52,0-4.18-2.09-12.73-6.25-25.68l-27.69-85.98h24.79l19.87,64.31c4.47,14.6,6.33,24.8,5.58,30.6,10.87-29.02,18.46-60.67,22.78-94.91h23.89Z"/>
    <path class="cls-2" d="M677.44,585.58h-71.67v-150.74h24.11v132.18h47.56v18.56ZM587.01,589.22l-27.71-13.68c2.46-2.02,4.81-4.2,6.92-6.73,11.78-13.84,17.65-34.3,17.65-61.4,0-49.87-19.57-74.82-58.72-74.82-19.2,0-34.18,6.33-44.89,18.99-11.77,13.85-17.64,34.23-17.64,61.19s5.21,45.94,15.63,58.26c9.53,11.17,23.9,16.76,43.11,16.76,7.17,0,13.74-.88,19.74-2.65l36.08,21,9.84-16.94ZM497.24,555.41c-6.1-9.82-9.16-25.59-9.16-47.32,0-37.95,11.53-56.95,34.61-56.95,12.07,0,20.91,4.54,26.57,13.61,6.09,9.83,9.16,25.46,9.16,46.9,0,38.27-11.54,57.4-34.61,57.4-12.07,0-20.92-4.52-26.58-13.63M452.11,543.8c0,12.78-4.69,23.27-14.06,31.48-9.38,8.18-21.96,12.28-37.72,12.28-14.74,0-29.04-4.71-42.87-14.08l6.48-12.94c11.91,5.96,22.68,8.93,32.36,8.93,9.08,0,16.18-2.01,21.33-6.01,5.14-4.01,8.21-9.63,8.21-16.74,0-8.96-6.25-16.61-17.7-23.02-10.56-5.8-31.69-17.93-31.69-17.93-11.45-8.35-17.19-17.31-17.19-32.07,0-12.22,4.28-22.08,12.83-29.58,8.57-7.53,19.62-11.29,33.17-11.29s26.71,3.75,38.17,11.17l-5.81,12.95c-9.8-4.16-19.47-6.25-29.01-6.25-7.73,0-13.69,1.86-17.84,5.59-4.18,3.71-6.76,8.47-6.76,14.3,0,8.91,6.38,16.66,18.15,23.2,10.71,5.81,32.36,18.15,32.36,18.15,11.74,8.33,17.61,17.21,17.61,31.86"/>
    <path class="cls-1" d="M707.7,384.35c-14.58-.37-25.86,1.1-35.34,5.1-2.74,1.09-7.08,1.09-7.46,4.55,1.48,1.46,1.65,3.82,2.93,5.84,2.18,3.64,5.99,8.54,9.47,11.1,3.82,2.93,7.65,5.82,11.67,8.37,7.08,4.38,15.11,6.93,22.02,11.3,4.02,2.54,8.02,5.83,12.05,8.56,1.98,1.46,3.25,3.82,5.82,4.73v-.56c-1.29-1.64-1.65-4.01-2.92-5.83l-5.47-5.28c-5.28-7.1-11.85-13.29-18.94-18.38-5.83-4.02-18.58-9.48-20.95-16.2l-.37-.37c4.01-.38,8.76-1.83,12.57-2.94,6.2-1.63,11.85-1.26,18.2-2.9,2.93-.73,5.83-1.65,8.76-2.55v-1.64c-3.3-3.28-5.65-7.64-9.11-10.74-9.27-8.01-19.49-15.84-30.05-22.4-5.66-3.65-12.93-6-18.95-9.11-2.17-1.1-5.83-1.64-7.1-3.46-3.27-4.01-5.1-9.28-7.47-14.03-5.27-10.01-10.38-21.11-14.92-31.7-3.29-7.1-5.28-14.19-9.29-20.75-18.77-30.96-39.15-49.71-70.48-68.11-6.73-3.83-14.74-5.47-23.3-7.47l-13.67-.72c-2.92-1.28-5.84-4.74-8.38-6.38-10.39-6.55-37.15-20.75-44.8-2-4.92,11.85,7.28,23.5,11.48,29.52,3.1,4.17,7.11,8.92,9.27,13.66,1.28,3.1,1.64,6.38,2.93,9.65,2.92,8.01,5.64,16.93,9.47,24.41,2,3.81,4.18,7.82,6.73,11.27,1.46,2.02,4.01,2.91,4.56,6.2-2.54,3.63-2.74,9.1-4.2,13.66-6.55,20.58-3.99,46.07,5.29,61.19,2.91,4.55,9.84,14.58,19.11,10.74,8.21-3.28,6.39-13.66,8.75-22.76.54-2.2.19-3.64,1.28-5.08v.36c2.54,5.09,5.1,10,7.46,15.11,5.65,8.92,15.49,18.21,23.68,24.39,4.36,3.3,7.82,8.93,13.29,10.95v-.55h-.36c-1.11-1.63-2.73-2.36-4.18-3.63-3.29-3.28-6.92-7.29-9.47-10.93-7.63-10.2-14.39-21.5-20.39-33.16-2.93-5.66-5.47-11.84-7.83-17.48-1.1-2.18-1.1-5.47-2.93-6.56-2.74,4-6.73,7.47-8.73,12.37-3.47,7.84-3.83,17.49-5.11,27.53l-.72.35c-5.8-1.46-7.82-7.46-10.02-12.55-5.46-12.94-6.37-33.71-1.64-48.64,1.27-3.82,6.75-15.84,4.56-19.48-1.1-3.49-4.74-5.47-6.74-8.21-2.35-3.45-4.92-7.82-6.56-11.65-4.37-10.19-6.57-21.49-11.27-31.68-2.2-4.75-6.02-9.66-9.11-14.04-3.47-4.91-7.29-8.38-10.03-14.2-.91-2-2.18-5.28-.72-7.46.36-1.46,1.1-2.01,2.55-2.37,2.36-1.99,9.1.54,11.47,1.64,6.75,2.73,12.4,5.28,18.03,9.1,2.55,1.83,5.28,5.29,8.56,6.2h3.83c5.82,1.27,12.37.35,17.85,2,9.65,3.1,18.39,7.65,26.23,12.56,23.85,15.13,43.53,36.62,56.81,62.3,2.18,4.18,3.11,8.01,5.09,12.38,3.84,8.93,8.58,18.04,12.39,26.78,3.83,8.56,7.47,17.29,12.94,24.4,2.73,3.82,13.68,5.83,18.58,7.83,3.63,1.63,9.29,3.09,12.56,5.09,6.2,3.82,12.37,8.2,18.19,12.4,2.9,2.18,12.02,6.74,12.56,10.38M521.92,226.08c-2.51-.03-5.02.28-7.45.92v.37h.35c1.47,2.91,4.02,4.93,5.84,7.47,1.47,2.92,2.74,5.82,4.18,8.73l.35-.36c2.57-1.82,3.85-4.73,3.85-9.11-1.11-1.29-1.28-2.54-2.2-3.82-1.07-1.82-3.44-2.73-4.91-4.19"/>
    <path class="cls-2" d="M725.05,585.55h3.77v-18.47h-5.66l-4.62,12.6-5.02-12.6h-5.45v18.47h3.56v-14.05h.2l5.26,14.05h2.72l5.24-14.05v14.05h0ZM694.65,585.55h3.99v-15.34h5.23v-3.13h-14.66v3.13h5.44v15.34s0,0,0,0Z"/>
  </g>
</svg>