<?xml version="1.0" encoding="UTF-8"?>
<svg id="Layer_1" data-name="Layer 1" xmlns="http://www.w3.org/2000/svg" viewBox="0 0 800 800">
  <defs>
    <style>
      .cls-1 {
        fill: #6d6e71;
      }

      .cls-1, .cls-2, .cls-3, .cls-4, .cls-5 {
        stroke-width: 0px;
      }

      .cls-2 {
        fill: #fbbd16;
      }

      .cls-3 {
        fill: #962444;
      }

      .cls-4 {
        fill: #452e7f;
      }

      .cls-5 {
        fill: #fff;
      }
    </style>
  </defs>
  <path class="cls-5" d="M0,400V0h800v800H0"/>
  <g>
    <path class="cls-2" d="M188.41,643.97v-202.37l38.83,218.54,63.22,31.47,40.63-181.66v198.77l71.29,35.06v-335.47l-108.33-51.26-34.3,160.09-34.63-193.07-107.72-51.54v335.77l71.02,35.67Z"/>
    <path class="cls-4" d="M412.35,408.24l113.14-58.74v243.4l156.51-80.94.61,91.74-269.98,141.81-.28-337.28Z"/>
    <path class="cls-3" d="M366.69,54.48l-80,70.71s156.13,80.2,175.1,89.68c18.95,9.49,45.93,27.7,16.76,54.69-29.17,26.96-61.26,23.32-83.16,12.41-21.89-10.96-183.85-92.61-183.85-92.61l-82.45,69.99s159.05,80.92,185.32,94.78c26.27,13.86,124.01,48.12,216.68-24.06,92.64-72.19,79.53-98.43,79.53-103.54s-2.19-32.05-18.26-48.84c-16.03-16.76-62.72-40.82-82.43-51.05-19.7-10.2-143.24-72.16-143.24-72.16h0Z"/>
    <path class="cls-1" d="M679.25,465.19c0,11.86-9.33,21.13-21.44,21.13s-21.54-9.29-21.54-21.13,9.55-20.9,21.54-20.9,21.44,9.29,21.44,20.9ZM641.63,465.19c0,9.29,6.87,16.7,16.33,16.7s15.91-7.41,15.91-16.57-6.75-16.83-16.07-16.83-16.18,7.52-16.18,16.7ZM654.49,476.15h-4.85v-20.9c1.92-.39,4.59-.63,8.03-.63,3.96,0,5.74.63,7.27,1.51,1.15.91,2.04,2.56,2.04,4.59,0,2.3-1.77,4.08-4.34,4.83v.26c2.03.76,3.18,2.3,3.84,5.09.63,3.2,1.01,4.49,1.51,5.24h-5.22c-.65-.75-1.02-2.68-1.67-5.08-.39-2.32-1.65-3.34-4.33-3.34h-2.3v8.43ZM654.63,464.31h2.3c2.66,0,4.85-.89,4.85-3.05,0-1.93-1.41-3.18-4.46-3.18-1.28,0-2.16.11-2.68.24v6Z"/>
  </g>
</svg>